<?xml version="1.0" encoding="utf-8"?>
<!-- Generator: Adobe Illustrator 16.0.0, SVG Export Plug-In . SVG Version: 6.00 Build 0)  -->
<!DOCTYPE svg PUBLIC "-//W3C//DTD SVG 1.1//EN" "http://www.w3.org/Graphics/SVG/1.1/DTD/svg11.dtd">
<svg version="1.1" id="Layer_1" xmlns="http://www.w3.org/2000/svg" xmlns:xlink="http://www.w3.org/1999/xlink" x="0px" y="0px"
	 width="453.333px" height="90px" viewBox="0 0 453.333 90" enable-background="new 0 0 453.333 90" xml:space="preserve">
<text transform="matrix(1 0 0 1 -98.3779 -699.6006)"><tspan x="0" y="0" font-family="'Poppins'" font-size="65">P</tspan><tspan x="40.819" y="0" font-family="'Poppins'" font-size="65" letter-spacing="-1">OP </tspan><tspan x="147.157" y="0" font-family="'Poppins-Medium'" font-size="65" letter-spacing="-1">M</tspan><tspan x="202.536" y="0" font-family="'Poppins-Medium'" font-size="65" letter-spacing="-3">U</tspan><tspan x="244.135" y="0" font-family="'Poppins-Medium'" font-size="65" letter-spacing="-1">SIC</tspan></text>
<text transform="matrix(1 0 0 1 -98.3779 -781.8672)"><tspan x="0" y="0" font-family="'Poppins'" font-size="65" letter-spacing="-1">R</tspan><tspan x="41.47" y="0" font-family="'Poppins'" font-size="65">O</tspan><tspan x="92.04" y="0" font-family="'Poppins'" font-size="65" letter-spacing="-1">CK </tspan><tspan x="202.147" y="0" font-family="'Poppins-Medium'" font-size="65" letter-spacing="-1">M</tspan><tspan x="257.526" y="0" font-family="'Poppins-Medium'" font-size="65" letter-spacing="-3">U</tspan><tspan x="299.126" y="0" font-family="'Poppins-Medium'" font-size="65" letter-spacing="-1">SIC</tspan></text>
<text transform="matrix(1 0 0 1 -97.4302 -864.1343)"><tspan x="0" y="0" font-family="'Poppins'" font-size="65" letter-spacing="-1">R&amp;B</tspan><tspan x="126.879" y="0" stroke="#000000" stroke-miterlimit="10" font-family="'Brown-Bold'" font-size="65" letter-spacing="-1">/</tspan><tspan x="154.503" y="0" font-family="'Poppins'" font-size="65" letter-spacing="-1">HIP-HOP </tspan><tspan x="450.312" y="0" font-family="'Poppins-Medium'" font-size="65" letter-spacing="-1">M</tspan><tspan x="505.691" y="0" font-family="'Poppins-Medium'" font-size="65" letter-spacing="-3">U</tspan><tspan x="547.291" y="0" font-family="'Poppins-Medium'" font-size="65" letter-spacing="-1">SIC</tspan></text>
<text transform="matrix(1 0 0 1 -98.3779 -952.7007)"><tspan x="0" y="0" font-family="'Poppins'" font-size="65" letter-spacing="-1">CO</tspan><tspan x="96.979" y="0" font-family="'Poppins'" font-size="65" letter-spacing="-3">U</tspan><tspan x="141.243" y="0" font-family="'Poppins'" font-size="65">NT</tspan><tspan x="230.032" y="0" font-family="'Poppins'" font-size="65" letter-spacing="-3">R</tspan><tspan x="270.202" y="0" font-family="'Poppins'" font-size="65" letter-spacing="-1">Y </tspan><tspan x="330.456" y="0" font-family="'Poppins-Medium'" font-size="65" letter-spacing="-1">M</tspan><tspan x="385.836" y="0" font-family="'Poppins-Medium'" font-size="65" letter-spacing="-3">U</tspan><tspan x="427.435" y="0" font-family="'Poppins-Medium'" font-size="65" letter-spacing="-1">SIC</tspan></text>
<text transform="matrix(1 0 0 1 -98.3779 -1034.9673)"><tspan x="0" y="0" font-family="'Poppins'" font-size="65" letter-spacing="-1">DANCE </tspan><tspan x="239.588" y="0" font-family="'Poppins-Medium'" font-size="65" letter-spacing="-1">M</tspan><tspan x="294.967" y="0" font-family="'Poppins-Medium'" font-size="65" letter-spacing="-3">U</tspan><tspan x="336.566" y="0" font-family="'Poppins-Medium'" font-size="65" letter-spacing="-1">SIC</tspan></text>
<text transform="matrix(1 0 0 1 -98.3779 -1117.2344)"><tspan x="0" y="0" font-family="'Poppins'" font-size="65" letter-spacing="1">L</tspan><tspan x="33.084" y="0" font-family="'Poppins'" font-size="65" letter-spacing="-4">A</tspan><tspan x="74.879" y="0" font-family="'Poppins'" font-size="65">T</tspan><tspan x="113.748" y="0" font-family="'Poppins'" font-size="65" letter-spacing="-3">I</tspan><tspan x="131.363" y="0" font-family="'Poppins'" font-size="65" letter-spacing="-1">N </tspan><tspan x="197.532" y="0" font-family="'Poppins-Medium'" font-size="65" letter-spacing="-1">M</tspan><tspan x="252.912" y="0" font-family="'Poppins-Medium'" font-size="65" letter-spacing="-3">U</tspan><tspan x="294.511" y="0" font-family="'Poppins-Medium'" font-size="65" letter-spacing="-1">SIC</tspan></text>
<text transform="matrix(1 0 0 1 -98.3779 -1275.376)" font-family="'Poppins'" font-size="65" letter-spacing="-1">NEWS</text>
<g>
	<path d="M108.634-1320.59h11.115v45.759h-11.115l-18.59-28.794v28.794H78.929v-45.759h11.115l18.59,28.794V-1320.59z"/>
	<path d="M155.174-1320.59v8.451h-16.51v9.812h14.56v8.451h-14.56v10.594h16.51v8.451h-27.625v-45.759H155.174z"/>
	<path d="M213.413-1320.459h11.961l-12.74,45.628h-12.74l-7.995-28.925l-7.931,28.925h-12.739l-12.935-45.628h11.895l7.93,32.824
		l8.125-32.824h12.61l7.8,32.302L213.413-1320.459z"/>
	<path d="M244.224-1312.334c-1.389,0-2.525,0.369-3.413,1.105c-0.889,0.736-1.333,1.797-1.333,3.184s0.412,2.502,1.235,3.348
		c0.823,0.844,1.896,1.494,3.218,1.949c1.321,0.455,2.795,0.889,4.42,1.301s3.238,0.91,4.842,1.494
		c1.604,0.586,3.066,1.311,4.389,2.178c1.32,0.867,2.393,2.091,3.217,3.671c0.822,1.584,1.234,3.479,1.234,5.688
		c0,3.857-1.57,7.162-4.712,9.914s-7.28,4.127-12.415,4.127s-9.273-1.234-12.415-3.705s-4.712-5.98-4.712-10.529h11.83
		c0.303,3.639,2.166,5.459,5.59,5.459c1.603,0,2.859-0.422,3.77-1.268s1.365-1.918,1.365-3.217c0-1.301-0.412-2.361-1.234-3.186
		c-0.824-0.822-1.896-1.473-3.219-1.949s-2.795-0.922-4.42-1.334c-1.625-0.41-3.239-0.92-4.842-1.527
		c-1.604-0.605-3.066-1.332-4.388-2.177c-1.322-0.844-2.396-2.057-3.218-3.639c-0.823-1.582-1.234-3.455-1.234-5.623
		c0-4.246,1.581-7.646,4.744-10.203s7.204-3.836,12.123-3.836c4.918,0,8.894,1.115,11.928,3.348
		c3.032,2.232,4.615,5.752,4.744,10.561h-12.09c-0.174-1.645-0.705-2.912-1.592-3.801
		C246.747-1311.889,245.609-1312.334,244.224-1312.334z"/>
</g>
<rect x="318.174" y="-494.974" fill="#FFFFFF" width="30" height="90"/>
<rect x="105.07" y="-494.974" fill="#FFFFFF" width="30" height="90"/>
<rect x="489.257" y="-362.98" fill="#FFFFFF" width="30" height="90"/>
<rect x="-65.487" y="-362.98" fill="#FFFFFF" width="30" height="90"/>
<rect x="421.333" y="-250.486" fill="#FFFFFF" width="30" height="90"/>
<rect x="2.308" y="-250.486" fill="#FFFFFF" width="30" height="90"/>
<rect x="441.964" y="-133.492" fill="#FFFFFF" width="30" height="90"/>
<rect x="-18.72" y="-133.492" fill="#FFFFFF" width="30" height="90"/>
<rect x="547.327" y="122.994" fill="#FFFFFF" width="30" height="90"/>
<rect x="-124.083" y="122.994" fill="#FFFFFF" width="30" height="90"/>
<rect x="423.333" fill="#FFFFFF" width="30" height="90"/>
<rect fill="#FFFFFF" width="30" height="90"/>
<rect x="396.544" y="245.987" fill="#FFFFFF" width="30" height="90"/>
<rect x="27.013" y="245.987" fill="#FFFFFF" width="30" height="90"/>
<g>
	<path d="M92.271,282.245c0,3.077-1.105,6.045-3.315,8.904c-1.17,1.474-2.915,2.677-5.232,3.607
		c-2.319,0.933-5.06,1.397-8.223,1.397h-6.89v17.745H57.495v-45.63H75.5c5.286,0,9.403,1.365,12.351,4.095
		C90.796,275.095,92.271,278.389,92.271,282.245z M68.61,287.705h6.89c1.69,0,3.022-0.498,3.997-1.495
		c0.976-0.997,1.463-2.308,1.463-3.933s-0.498-2.958-1.494-3.998c-0.998-1.04-2.319-1.56-3.966-1.56h-6.89V287.705z"/>
	<path d="M102.441,307.725c-4.528-4.42-6.792-10.01-6.792-16.77c0-6.761,2.264-12.339,6.792-16.738
		c4.528-4.397,10.075-6.597,16.64-6.597c6.565,0,12.09,2.199,16.575,6.597c4.485,4.399,6.728,9.978,6.728,16.738
		c0,6.76-2.254,12.35-6.76,16.77c-4.508,4.42-10.032,6.63-16.575,6.63C112.505,314.354,106.97,312.145,102.441,307.725z
		 M127.792,300.51c2.188-2.383,3.281-5.567,3.281-9.555c0-3.986-1.094-7.172-3.281-9.556c-2.189-2.383-5.114-3.575-8.775-3.575
		c-3.662,0-6.588,1.192-8.775,3.575c-2.188,2.384-3.282,5.569-3.282,9.556c0,3.987,1.094,7.172,3.282,9.555
		c2.188,2.384,5.113,3.575,8.775,3.575C122.678,304.085,125.603,302.894,127.792,300.51z"/>
	<path d="M182.358,282.245c0,3.077-1.104,6.045-3.314,8.904c-1.17,1.474-2.915,2.677-5.232,3.607
		c-2.318,0.933-5.061,1.397-8.223,1.397h-6.89v17.745h-11.115v-45.63h18.005c5.287,0,9.402,1.365,12.35,4.095
		C180.886,275.095,182.358,278.389,182.358,282.245z M158.699,287.705h6.89c1.689,0,3.022-0.498,3.998-1.495
		c0.975-0.997,1.462-2.308,1.462-3.933s-0.499-2.958-1.495-3.998c-0.997-1.04-2.318-1.56-3.965-1.56h-6.89V287.705z"/>
	<path d="M252.231,268.725v45.175h-7.41V282.96l-13.779,30.939h-5.135l-13.846-30.939v30.939h-7.41v-45.175h7.996l15.859,35.425
		l15.795-35.425H252.231z"/>
	<path d="M259.966,297.39v-28.665h7.41v28.665c0,3.424,0.898,6.002,2.697,7.735s4.312,2.6,7.541,2.6c3.227,0,5.74-0.866,7.539-2.6
		c1.798-1.733,2.697-4.312,2.697-7.735v-28.665h7.41v28.665c0,5.46-1.701,9.652-5.102,12.577c-3.402,2.926-7.628,4.388-12.676,4.388
		c-5.049,0-9.229-1.451-12.545-4.354C261.624,307.097,259.966,302.894,259.966,297.39z"/>
	<path d="M315.671,274.185c-2.211,0-4.01,0.563-5.396,1.69c-1.388,1.127-2.08,2.762-2.08,4.907c0,2.145,0.823,3.781,2.47,4.907
		c1.646,1.128,3.641,1.95,5.98,2.47c2.34,0.521,4.68,1.116,7.02,1.788s4.333,1.917,5.98,3.737c1.646,1.82,2.47,4.398,2.47,7.735
		s-1.409,6.327-4.226,8.97c-2.816,2.644-6.586,3.965-11.309,3.965c-4.725,0-8.56-1.104-11.506-3.314
		c-2.947-2.21-4.42-5.266-4.42-9.165h7.93c0.173,1.993,0.91,3.574,2.211,4.745c1.299,1.17,3.205,1.755,5.719,1.755
		s4.496-0.65,5.948-1.95c1.451-1.3,2.177-2.838,2.177-4.615c0-1.776-0.444-3.162-1.332-4.16c-0.889-0.996-2.037-1.743-3.445-2.242
		c-1.408-0.498-2.957-0.942-4.646-1.333c-1.69-0.39-3.392-0.845-5.104-1.364c-1.712-0.521-3.271-1.191-4.68-2.016
		c-1.408-0.822-2.557-2.024-3.445-3.607c-0.889-1.581-1.332-3.52-1.332-5.817c0-3.942,1.419-7.117,4.258-9.522
		c2.838-2.405,6.521-3.607,11.05-3.607s8.146,1.04,10.854,3.12s4.215,5.092,4.518,9.035h-8.189c-0.174-1.733-0.91-3.186-2.21-4.355
		S317.88,274.185,315.671,274.185z"/>
	<path d="M338.94,313.899v-45.175h7.41v45.175H338.94z"/>
	<path d="M358.374,307.79c-4.463-4.333-6.695-9.848-6.695-16.543s2.232-12.22,6.695-16.575c4.463-4.354,9.923-6.532,16.381-6.532
		c4.81,0,9.088,1.182,12.837,3.543c3.748,2.362,6.468,5.709,8.157,10.042h-8.904c-2.428-4.55-6.458-6.825-12.09-6.825
		c-4.551,0-8.267,1.495-11.148,4.485s-4.322,6.944-4.322,11.862c0,4.919,1.44,8.873,4.322,11.862
		c2.882,2.99,6.598,4.485,11.148,4.485c5.632,0,9.662-2.275,12.09-6.825h8.904c-1.689,4.334-4.409,7.67-8.157,10.01
		c-3.749,2.341-8.027,3.511-12.837,3.511C368.297,314.29,362.837,312.123,358.374,307.79z"/>
</g>
<g>
	<path d="M-82.968,174.071v17.745h-11.115v-45.63h18.006c5.286,0,9.402,1.365,12.35,4.095c2.946,2.73,4.42,6.024,4.42,9.881
		c0,2.644-0.803,5.222-2.404,7.734c-1.604,2.514-4.226,4.29-7.865,5.33l11.18,18.59h-13l-10.27-17.745H-82.968z M-82.968,154.637
		v10.985h6.891c1.689,0,3.021-0.498,3.997-1.495s1.462-2.308,1.462-3.933s-0.498-2.958-1.494-3.998
		c-0.998-1.04-2.318-1.56-3.965-1.56H-82.968z"/>
	<path d="M-40.782,192.271c-4.117,0-7.605-1.43-10.465-4.29c-2.861-2.859-4.291-6.175-4.291-9.944c0-3.771,0.985-6.955,2.958-9.556
		c1.972-2.6,4.409-4.225,7.312-4.875c-2.038-3.12-3.056-5.806-3.056-8.06c0-3.25,1.181-6.034,3.543-8.353
		c2.361-2.317,5.623-3.478,9.783-3.478c4.159,0,7.441,1.062,9.847,3.185c2.405,2.124,3.607,4.615,3.607,7.476
		c0,1.56-0.304,2.947-0.909,4.16h-10.531c0.477-0.736,0.716-1.549,0.716-2.438c0-0.888-0.25-1.593-0.747-2.113
		c-0.5-0.52-1.139-0.779-1.918-0.779c-0.78,0-1.42,0.26-1.918,0.779c-0.498,0.521-0.747,1.203-0.747,2.048s0.433,1.853,1.3,3.022
		l24.311,32.76h-12.806l-4.03-5.785c-1.299,1.864-3.012,3.37-5.135,4.518C-36.081,191.698-38.356,192.271-40.782,192.271z
		 M-46.308,177.484c0,1.538,0.541,2.859,1.625,3.965c1.082,1.104,2.394,1.657,3.932,1.657c1.539,0,2.861-0.553,3.966-1.657
		c1.104-1.105,1.657-2.427,1.657-3.965s-0.553-2.849-1.657-3.933c-1.104-1.083-2.427-1.625-3.966-1.625
		c-1.538,0-2.85,0.542-3.932,1.625C-45.767,174.636-46.308,175.946-46.308,177.484z"/>
	<path d="M-9.063,146.187h19.826c4.636,0,8.33,1.128,11.082,3.38c2.751,2.254,4.127,5.114,4.127,8.58
		c0,5.157-3.012,8.646-9.035,10.465c3.076,0.434,5.525,1.713,7.346,3.835c1.82,2.124,2.73,4.615,2.73,7.476
		c0,3.64-1.333,6.532-3.998,8.678c-2.665,2.145-6.381,3.217-11.147,3.217H-9.063V146.187z M2.052,154.637v9.88h7.28
		c1.603,0,2.893-0.411,3.868-1.235c0.975-0.822,1.462-2.047,1.462-3.672s-0.487-2.86-1.462-3.705
		c-0.976-0.845-2.266-1.268-3.868-1.268H2.052z M2.052,183.366h8.385c1.517,0,2.773-0.454,3.771-1.364
		c0.996-0.91,1.495-2.167,1.495-3.771c0-1.603-0.478-2.881-1.43-3.835c-0.954-0.952-2.189-1.43-3.705-1.43H2.052V183.366z"/>
	<path stroke="#000000" stroke-miterlimit="10" d="M28.247,191.816l21.125-45.502h7.801l-21.125,45.502H28.247z"/>
	<path d="M89.151,146.187h11.115v45.63H89.151v-18.915H71.536v18.915H60.421v-45.63h11.115v18.265h17.615V146.187z"/>
	<path d="M108.065,191.816v-45.63h11.115v45.63H108.065z"/>
	<path d="M161.755,160.162c0,3.077-1.105,6.045-3.314,8.904c-1.17,1.474-2.916,2.677-5.232,3.607
		c-2.319,0.933-5.061,1.397-8.223,1.397h-6.891v17.745h-11.115v-45.63h18.006c5.286,0,9.402,1.365,12.35,4.095
		C160.281,153.012,161.755,156.306,161.755,160.162z M138.095,165.622h6.891c1.689,0,3.021-0.498,3.997-1.495
		s1.462-2.308,1.462-3.933s-0.498-2.958-1.494-3.998c-0.998-1.04-2.318-1.56-3.965-1.56h-6.891V165.622z"/>
	<path d="M166.174,173.616v-9.229h28.601v9.229H166.174z"/>
	<path d="M230.978,146.187h11.115v45.63h-11.115v-18.915h-17.614v18.915h-11.115v-45.63h11.115v18.265h17.614V146.187z"/>
	<path d="M254.021,185.642c-4.529-4.42-6.793-10.01-6.793-16.77c0-6.761,2.264-12.339,6.793-16.738
		c4.527-4.397,10.074-6.597,16.639-6.597s12.09,2.199,16.576,6.597c4.484,4.399,6.727,9.978,6.727,16.738
		c0,6.76-2.254,12.35-6.76,16.77c-4.508,4.42-10.033,6.63-16.574,6.63C264.083,192.271,258.548,190.062,254.021,185.642z
		 M279.37,178.427c2.188-2.383,3.281-5.567,3.281-9.555c0-3.986-1.094-7.172-3.281-9.556c-2.189-2.383-5.113-3.575-8.775-3.575
		s-6.588,1.192-8.775,3.575c-2.188,2.384-3.283,5.569-3.283,9.556c0,3.987,1.096,7.172,3.283,9.555
		c2.188,2.384,5.113,3.575,8.775,3.575S277.181,180.811,279.37,178.427z"/>
	<path d="M333.937,160.162c0,3.077-1.105,6.045-3.314,8.904c-1.17,1.474-2.916,2.677-5.232,3.607
		c-2.318,0.933-5.061,1.397-8.223,1.397h-6.891v17.745h-11.115v-45.63h18.006c5.285,0,9.402,1.365,12.35,4.095
		C332.464,153.012,333.937,156.306,333.937,160.162z M310.276,165.622h6.891c1.689,0,3.021-0.498,3.998-1.495
		c0.975-0.997,1.461-2.308,1.461-3.933s-0.498-2.958-1.494-3.998c-0.998-1.04-2.318-1.56-3.965-1.56h-6.891V165.622z"/>
	<path d="M403.81,146.642v45.175h-7.41v-30.939l-13.779,30.939h-5.135l-13.846-30.939v30.939h-7.41v-45.175h7.996l15.859,35.425
		l15.795-35.425H403.81z"/>
	<path d="M411.544,175.307v-28.665h7.41v28.665c0,3.424,0.898,6.002,2.697,7.735c1.797,1.733,4.311,2.6,7.539,2.6
		s5.742-0.866,7.541-2.6c1.797-1.733,2.697-4.312,2.697-7.735v-28.665h7.41v28.665c0,5.46-1.701,9.652-5.102,12.577
		c-3.402,2.926-7.629,4.388-12.676,4.388c-5.049,0-9.23-1.451-12.545-4.354S411.544,180.811,411.544,175.307z"/>
	<path d="M467.249,152.102c-2.211,0-4.01,0.563-5.396,1.69s-2.078,2.762-2.078,4.907c0,2.145,0.822,3.781,2.469,4.907
		c1.646,1.128,3.641,1.95,5.98,2.47c2.34,0.521,4.68,1.116,7.02,1.788s4.332,1.917,5.98,3.737c1.646,1.82,2.471,4.398,2.471,7.735
		s-1.41,6.327-4.227,8.97c-2.816,2.644-6.586,3.965-11.309,3.965c-4.725,0-8.559-1.104-11.506-3.314s-4.42-5.266-4.42-9.165h7.93
		c0.174,1.993,0.91,3.574,2.211,4.745c1.299,1.17,3.205,1.755,5.719,1.755s4.496-0.65,5.947-1.95c1.453-1.3,2.178-2.838,2.178-4.615
		c0-1.776-0.443-3.162-1.332-4.16c-0.889-0.996-2.037-1.743-3.445-2.242c-1.408-0.498-2.957-0.942-4.646-1.333
		c-1.691-0.39-3.393-0.845-5.104-1.364c-1.711-0.521-3.271-1.191-4.68-2.016c-1.408-0.822-2.557-2.024-3.445-3.607
		c-0.889-1.581-1.332-3.52-1.332-5.817c0-3.942,1.418-7.117,4.258-9.522c2.838-2.405,6.521-3.607,11.049-3.607
		c4.529,0,8.146,1.04,10.855,3.12s4.215,5.092,4.518,9.035h-8.189c-0.174-1.733-0.91-3.186-2.211-4.355
		C471.214,152.687,469.458,152.102,467.249,152.102z"/>
	<path d="M490.519,191.816v-45.175h7.41v45.175H490.519z"/>
	<path d="M509.952,185.707c-4.463-4.333-6.695-9.848-6.695-16.543s2.232-12.22,6.695-16.575c4.463-4.354,9.922-6.532,16.381-6.532
		c4.809,0,9.088,1.182,12.836,3.543c3.748,2.362,6.469,5.709,8.158,10.042h-8.904c-2.428-4.55-6.459-6.825-12.09-6.825
		c-4.551,0-8.268,1.495-11.148,4.485c-2.883,2.99-4.322,6.944-4.322,11.862c0,4.919,1.439,8.873,4.322,11.862
		c2.881,2.99,6.598,4.485,11.148,4.485c5.631,0,9.662-2.275,12.09-6.825h8.904c-1.689,4.334-4.41,7.67-8.158,10.01
		c-3.748,2.341-8.027,3.511-12.836,3.511C519.874,192.207,514.415,190.04,509.952,185.707z"/>
</g>
<g>
	<path d="M41.115,50.167v17.745H30v-45.63h18.005c5.286,0,9.403,1.365,12.351,4.095c2.945,2.73,4.42,6.024,4.42,9.881
		c0,2.644-0.803,5.222-2.405,7.734c-1.604,2.514-4.226,4.29-7.865,5.33l11.181,18.59h-13L42.415,50.167H41.115z M41.115,30.732
		v10.985h6.89c1.69,0,3.022-0.498,3.997-1.495c0.976-0.997,1.463-2.308,1.463-3.933s-0.498-2.958-1.494-3.998
		c-0.998-1.04-2.319-1.56-3.966-1.56H41.115z"/>
	<path d="M75.598,61.737c-4.529-4.42-6.793-10.01-6.793-16.77c0-6.761,2.264-12.339,6.793-16.738
		c4.527-4.397,10.074-6.597,16.64-6.597s12.09,2.199,16.575,6.597c4.484,4.399,6.727,9.978,6.727,16.738
		c0,6.76-2.253,12.35-6.76,16.77s-10.031,6.63-16.574,6.63C85.661,68.367,80.125,66.157,75.598,61.737z M100.947,54.522
		c2.188-2.383,3.282-5.567,3.282-9.555c0-3.986-1.095-7.172-3.282-9.556c-2.188-2.383-5.113-3.575-8.775-3.575
		s-6.587,1.192-8.774,3.575c-2.188,2.384-3.282,5.569-3.282,9.556c0,3.987,1.094,7.172,3.282,9.555
		c2.188,2.384,5.112,3.575,8.774,3.575S98.759,56.906,100.947,54.522z"/>
	<path d="M126.167,61.705c-4.528-4.397-6.792-9.978-6.792-16.737c0-6.761,2.264-12.339,6.792-16.738
		c4.528-4.397,10.063-6.597,16.607-6.597c5.07,0,9.577,1.343,13.521,4.029c3.942,2.688,6.695,6.414,8.254,11.181h-13.26
		c-1.733-3.337-4.507-5.006-8.319-5.006c-3.813,0-6.815,1.192-9.003,3.575c-2.188,2.384-3.282,5.569-3.282,9.556
		c0,3.987,1.094,7.172,3.282,9.555c2.188,2.384,5.189,3.575,9.003,3.575c3.812,0,6.586-1.668,8.319-5.005h13.26
		c-1.559,4.767-4.312,8.493-8.254,11.18c-3.943,2.688-8.45,4.03-13.521,4.03C136.23,68.303,130.695,66.104,126.167,61.705z"/>
	<path d="M180.864,67.912h-11.115v-45.63h11.115v20.021l15.079-20.021h14.561l-18.785,22.815l18.785,22.814h-14.3l-15.34-20.149
		V67.912z"/>
	<path d="M279.728,22.737v45.175h-7.41V36.973l-13.78,30.939h-5.135l-13.845-30.939v30.939h-7.41V22.737h7.995l15.859,35.425
		l15.795-35.425H279.728z"/>
	<path d="M287.461,51.402V22.737h7.41v28.665c0,3.424,0.898,6.002,2.697,7.735s4.312,2.6,7.541,2.6c3.227,0,5.74-0.866,7.539-2.6
		c1.798-1.733,2.697-4.312,2.697-7.735V22.737h7.41v28.665c0,5.46-1.701,9.652-5.102,12.577c-3.402,2.926-7.628,4.388-12.676,4.388
		c-5.049,0-9.229-1.451-12.545-4.354C289.119,61.109,287.461,56.906,287.461,51.402z"/>
	<path d="M343.166,28.197c-2.21,0-4.009,0.563-5.395,1.69c-1.388,1.127-2.08,2.762-2.08,4.907c0,2.145,0.822,3.781,2.47,4.907
		c1.646,1.128,3.64,1.95,5.979,2.47c2.34,0.521,4.68,1.116,7.021,1.788c2.34,0.672,4.332,1.917,5.979,3.737
		c1.646,1.82,2.471,4.398,2.471,7.735s-1.409,6.327-4.226,8.97c-2.817,2.644-6.587,3.965-11.31,3.965
		c-4.724,0-8.559-1.104-11.506-3.314s-4.42-5.266-4.42-9.165h7.931c0.173,1.993,0.91,3.574,2.21,4.745
		c1.3,1.17,3.206,1.755,5.72,1.755c2.513,0,4.495-0.65,5.948-1.95c1.451-1.3,2.177-2.838,2.177-4.615
		c0-1.776-0.444-3.162-1.332-4.16c-0.889-0.996-2.038-1.743-3.445-2.242c-1.409-0.498-2.958-0.942-4.647-1.333
		c-1.689-0.39-3.391-0.845-5.103-1.364c-1.712-0.521-3.272-1.191-4.68-2.016c-1.409-0.822-2.558-2.024-3.445-3.607
		c-0.889-1.581-1.333-3.52-1.333-5.817c0-3.942,1.42-7.117,4.258-9.522s6.521-3.607,11.051-3.607c4.527,0,8.146,1.04,10.854,3.12
		c2.708,2.08,4.214,5.092,4.518,9.035h-8.19c-0.174-1.733-0.91-3.186-2.209-4.355C347.131,28.782,345.376,28.197,343.166,28.197z"/>
	<path d="M366.436,67.912V22.737h7.41v45.175H366.436z"/>
	<path d="M385.869,61.803c-4.463-4.333-6.694-9.848-6.694-16.543s2.231-12.22,6.694-16.575c4.463-4.354,9.923-6.532,16.381-6.532
		c4.81,0,9.088,1.182,12.837,3.543c3.748,2.362,6.468,5.709,8.157,10.042h-8.904c-2.428-4.55-6.458-6.825-12.09-6.825
		c-4.551,0-8.267,1.495-11.148,4.485s-4.322,6.944-4.322,11.862c0,4.919,1.44,8.873,4.322,11.862
		c2.882,2.99,6.598,4.485,11.148,4.485c5.632,0,9.662-2.275,12.09-6.825h8.904c-1.689,4.334-4.409,7.67-8.157,10.01
		c-3.749,2.341-8.027,3.511-12.837,3.511C395.792,68.303,390.332,66.136,385.869,61.803z"/>
</g>
<g>
	<path d="M27.334-111.21c7.28,0,13.26,2.112,17.94,6.338c4.68,4.225,7.021,9.707,7.021,16.444c0,6.739-2.341,12.231-7.021,16.478
		c-4.681,4.248-10.66,6.37-17.94,6.37H11.28v-45.63H27.334z M22.395-74.03h4.939c4.246,0,7.583-1.3,10.01-3.899
		c2.427-2.601,3.641-6.088,3.641-10.465s-1.214-7.865-3.641-10.465c-2.427-2.601-5.764-3.9-10.01-3.9h-4.939V-74.03z"/>
	<path d="M86.355-65.58l-2.535-7.67H67.44l-2.535,7.67h-11.83l15.859-45.76h13.521L98.25-65.58H86.355z M70.235-81.7h10.79
		l-5.396-16.25L70.235-81.7z"/>
	<path d="M131.464-111.34h11.114v45.76h-11.114l-18.59-28.795v28.795h-11.115v-45.76h11.115l18.59,28.795V-111.34z"/>
	<path d="M154.506-71.787c-4.528-4.397-6.792-9.978-6.792-16.737c0-6.761,2.264-12.339,6.792-16.738
		c4.528-4.397,10.064-6.597,16.607-6.597c5.07,0,9.577,1.343,13.521,4.029c3.942,2.688,6.695,6.414,8.255,11.181h-13.26
		c-1.734-3.337-4.508-5.006-8.32-5.006c-3.813,0-6.814,1.192-9.002,3.575c-2.189,2.384-3.283,5.569-3.283,9.556
		c0,3.987,1.094,7.172,3.283,9.555c2.188,2.384,5.188,3.575,9.002,3.575c3.812,0,6.586-1.668,8.32-5.005h13.26
		c-1.56,4.767-4.312,8.493-8.255,11.18c-3.943,2.688-8.45,4.03-13.521,4.03C164.571-65.189,159.035-67.389,154.506-71.787z"/>
	<path d="M225.713-111.34v8.45h-16.51v9.814h14.561v8.45h-14.561v10.595h16.51v8.45h-27.625v-45.76H225.713z"/>
	<path d="M298.448-110.755v45.175h-7.41V-96.52L277.259-65.58h-5.137L258.278-96.52v30.939h-7.41v-45.175h7.994l15.861,35.425
		l15.795-35.425H298.448z"/>
	<path d="M306.183-82.09v-28.665h7.41v28.665c0,3.424,0.898,6.002,2.697,7.735c1.797,1.733,4.311,2.6,7.539,2.6
		s5.742-0.866,7.541-2.6c1.797-1.733,2.697-4.312,2.697-7.735v-28.665h7.41v28.665c0,5.46-1.701,9.652-5.102,12.577
		c-3.404,2.926-7.629,4.388-12.676,4.388c-5.049,0-9.23-1.451-12.545-4.354C307.839-72.383,306.183-76.586,306.183-82.09z"/>
	<path d="M361.886-105.295c-2.209,0-4.008,0.563-5.395,1.69s-2.08,2.762-2.08,4.907c0,2.145,0.822,3.781,2.471,4.907
		c1.646,1.128,3.639,1.95,5.979,2.47c2.342,0.521,4.682,1.116,7.021,1.788s4.332,1.917,5.979,3.737s2.471,4.398,2.471,7.735
		s-1.408,6.327-4.225,8.97c-2.818,2.644-6.588,3.965-11.311,3.965s-8.559-1.104-11.504-3.314c-2.947-2.21-4.42-5.266-4.42-9.165
		h7.93c0.172,1.993,0.91,3.574,2.209,4.745c1.301,1.17,3.207,1.755,5.721,1.755c2.512,0,4.494-0.65,5.947-1.95
		c1.451-1.3,2.178-2.838,2.178-4.615c0-1.776-0.445-3.162-1.332-4.16c-0.889-0.996-2.037-1.743-3.445-2.242
		c-1.408-0.498-2.957-0.942-4.648-1.333c-1.689-0.39-3.391-0.845-5.102-1.364c-1.713-0.521-3.273-1.191-4.68-2.016
		c-1.41-0.822-2.559-2.024-3.445-3.607c-0.889-1.581-1.332-3.52-1.332-5.817c0-3.942,1.418-7.117,4.256-9.522
		s6.521-3.607,11.051-3.607c4.527,0,8.146,1.04,10.855,3.12c2.707,2.08,4.213,5.092,4.518,9.035h-8.191
		c-0.172-1.733-0.908-3.186-2.209-4.355S364.097-105.295,361.886-105.295z"/>
	<path d="M385.155-65.58v-45.175h7.41v45.175H385.155z"/>
	<path d="M404.589-71.689c-4.463-4.333-6.693-9.848-6.693-16.543s2.23-12.22,6.693-16.575c4.463-4.354,9.924-6.532,16.381-6.532
		c4.811,0,9.088,1.182,12.838,3.543c3.748,2.362,6.467,5.709,8.156,10.042h-8.904c-2.428-4.55-6.457-6.825-12.09-6.825
		c-4.551,0-8.266,1.495-11.148,4.485c-2.881,2.99-4.322,6.944-4.322,11.862c0,4.919,1.441,8.873,4.322,11.862
		c2.883,2.99,6.598,4.485,11.148,4.485c5.633,0,9.662-2.275,12.09-6.825h8.904c-1.689,4.334-4.408,7.67-8.156,10.01
		c-3.75,2.341-8.027,3.511-12.838,3.511C414.513-65.189,409.052-67.356,404.589-71.689z"/>
</g>
<g>
	<path d="M32.308-228.464h11.115v37.18h13.845v8.45h-24.96V-228.464z"/>
	<path d="M94.382-182.834l-2.535-7.67H75.468l-2.535,7.67h-11.83l15.859-45.76h13.52l15.795,45.76H94.382z M78.263-198.954h10.789
		l-5.395-16.25L78.263-198.954z"/>
	<path d="M104.066-220.014v-8.45h36.011v8.45h-12.48v37.18h-11.115v-37.18H104.066z"/>
	<path d="M146.056-182.834v-45.63h11.115v45.63H146.056z"/>
	<path d="M193.376-228.594h11.115v45.76h-11.115l-18.59-28.795v28.795h-11.115v-45.76h11.115l18.59,28.795V-228.594z"/>
	<path d="M277.42-228.009v45.175h-7.41v-30.939l-13.78,30.939h-5.135l-13.845-30.939v30.939h-7.41v-45.175h7.995l15.859,35.425
		l15.795-35.425H277.42z"/>
	<path d="M285.154-199.344v-28.665h7.41v28.665c0,3.424,0.898,6.002,2.697,7.734c1.798,1.734,4.312,2.601,7.54,2.601
		c3.228,0,5.741-0.866,7.54-2.601c1.798-1.732,2.697-4.311,2.697-7.734v-28.665h7.41v28.665c0,5.46-1.701,9.652-5.103,12.577
		c-3.402,2.925-7.627,4.388-12.675,4.388c-5.049,0-9.229-1.451-12.545-4.355C286.812-189.637,285.154-193.84,285.154-199.344z"/>
	<path d="M340.858-222.549c-2.21,0-4.009,0.563-5.395,1.689c-1.388,1.128-2.08,2.763-2.08,4.908c0,2.145,0.822,3.781,2.47,4.907
		c1.646,1.128,3.64,1.95,5.979,2.47s4.68,1.116,7.021,1.787c2.34,0.673,4.333,1.918,5.979,3.738s2.471,4.398,2.471,7.734
		c0,3.338-1.409,6.328-4.226,8.971c-2.817,2.644-6.587,3.965-11.31,3.965c-4.724,0-8.559-1.105-11.506-3.314
		c-2.947-2.211-4.42-5.266-4.42-9.166h7.931c0.173,1.994,0.91,3.575,2.21,4.746c1.3,1.17,3.206,1.754,5.72,1.754
		c2.513,0,4.495-0.649,5.948-1.949c1.451-1.301,2.177-2.838,2.177-4.615c0-1.776-0.444-3.162-1.332-4.16
		c-0.889-0.996-2.038-1.744-3.445-2.242c-1.409-0.498-2.958-0.943-4.647-1.333s-3.391-0.845-5.103-1.364
		c-1.712-0.521-3.272-1.191-4.68-2.016c-1.409-0.822-2.558-2.025-3.445-3.607c-0.889-1.582-1.333-3.52-1.333-5.817
		c0-3.942,1.42-7.118,4.258-9.522c2.838-2.405,6.521-3.607,11.051-3.607c4.527,0,8.146,1.039,10.854,3.119s4.214,5.093,4.518,9.035
		h-8.19c-0.174-1.732-0.91-3.185-2.209-4.354C344.823-221.964,343.068-222.549,340.858-222.549z"/>
	<path d="M364.128-182.834v-45.175h7.41v45.175H364.128z"/>
	<path d="M383.562-188.943c-4.463-4.334-6.694-9.848-6.694-16.543s2.231-12.221,6.694-16.575s9.923-6.532,16.381-6.532
		c4.81,0,9.088,1.182,12.837,3.543c3.748,2.361,6.468,5.709,8.157,10.042h-8.904c-2.428-4.55-6.458-6.825-12.09-6.825
		c-4.551,0-8.267,1.495-11.148,4.484c-2.882,2.99-4.322,6.945-4.322,11.863s1.44,8.873,4.322,11.862
		c2.882,2.99,6.598,4.485,11.148,4.485c5.632,0,9.662-2.275,12.09-6.825h8.904c-1.689,4.333-4.409,7.67-8.157,10.01
		c-3.749,2.341-8.027,3.511-12.837,3.511C393.484-182.443,388.024-184.61,383.562-188.943z"/>
</g>
<g>
	<path d="M-28.695-301.275c-4.528-4.397-6.792-9.978-6.792-16.737c0-6.761,2.264-12.339,6.792-16.738
		c4.528-4.397,10.064-6.597,16.607-6.597c5.07,0,9.577,1.343,13.521,4.029c3.942,2.688,6.695,6.414,8.255,11.181h-13.26
		c-1.734-3.337-4.508-5.006-8.32-5.006c-3.813,0-6.814,1.192-9.002,3.575c-2.189,2.384-3.283,5.569-3.283,9.556
		c0,3.987,1.094,7.172,3.283,9.555c2.188,2.384,5.188,3.575,9.002,3.575c3.812,0,6.586-1.668,8.32-5.005h13.26
		c-1.56,4.767-4.312,8.493-8.255,11.18c-3.943,2.688-8.45,4.03-13.521,4.03C-18.631-294.678-24.167-296.877-28.695-301.275z"/>
	<path d="M19.015-301.243c-4.528-4.42-6.792-10.01-6.792-16.77c0-6.761,2.264-12.339,6.792-16.738
		c4.528-4.397,10.075-6.597,16.64-6.597c6.565,0,12.09,2.199,16.575,6.597c4.485,4.399,6.728,9.978,6.728,16.738
		c0,6.76-2.254,12.35-6.76,16.77c-4.508,4.42-10.032,6.63-16.575,6.63C29.078-294.613,23.543-296.823,19.015-301.243z
		 M44.365-308.458c2.188-2.383,3.281-5.567,3.281-9.555c0-3.986-1.094-7.172-3.281-9.556c-2.189-2.383-5.114-3.575-8.775-3.575
		c-3.662,0-6.588,1.192-8.775,3.575c-2.188,2.384-3.282,5.569-3.282,9.556c0,3.987,1.094,7.172,3.282,9.555
		c2.188,2.384,5.113,3.575,8.775,3.575C39.251-304.883,42.176-306.074,44.365-308.458z"/>
	<path d="M63.962-313.463v-27.235h11.114v27.235c0,2.729,0.672,4.832,2.016,6.305c1.343,1.474,3.314,2.21,5.915,2.21
		s4.593-0.736,5.979-2.21c1.387-1.473,2.08-3.575,2.08-6.305v-27.235h11.115v27.235c0,4.029-0.942,7.507-2.828,10.433
		c-1.885,2.925-4.268,5.06-7.149,6.402c-2.882,1.344-6.013,2.015-9.393,2.015c-5.287,0-9.75-1.646-13.39-4.939
		C65.781-302.846,63.962-307.483,63.962-313.463z"/>
	<path d="M138.126-340.828h11.114v45.76h-11.114l-18.59-28.795v28.795h-11.115v-45.76h11.115l18.59,28.795V-340.828z"/>
	<path d="M155.221-332.248v-8.45h36.01v8.45h-12.479v37.18h-11.115v-37.18H155.221z"/>
	<path d="M208.325-312.813v17.745H197.21v-45.63h18.005c5.287,0,9.402,1.365,12.35,4.095c2.948,2.73,4.421,6.024,4.421,9.881
		c0,2.644-0.803,5.222-2.404,7.734c-1.604,2.514-4.226,4.29-7.866,5.33l11.181,18.59h-13.001l-10.27-17.745H208.325z
		 M208.325-332.248v10.985h6.89c1.689,0,3.022-0.498,3.998-1.495c0.975-0.997,1.462-2.308,1.462-3.933s-0.499-2.958-1.495-3.998
		c-0.997-1.04-2.318-1.56-3.965-1.56H208.325z"/>
	<path d="M260.39-295.068h-11.113v-14.689l-15.795-30.94h12.609l8.775,20.605l8.709-20.605h12.611l-15.797,30.94V-295.068z"/>
	<path d="M345.214-340.243v45.175h-7.41v-30.939l-13.779,30.939h-5.135l-13.846-30.939v30.939h-7.41v-45.175h7.996l15.859,35.425
		l15.795-35.425H345.214z"/>
	<path d="M352.948-311.578v-28.665h7.41v28.665c0,3.424,0.9,6.002,2.699,7.735c1.797,1.733,4.311,2.6,7.539,2.6
		s5.742-0.866,7.539-2.6c1.799-1.733,2.699-4.312,2.699-7.735v-28.665h7.41v28.665c0,5.46-1.701,9.652-5.104,12.577
		c-3.402,2.926-7.627,4.388-12.676,4.388c-5.047,0-9.229-1.451-12.545-4.354C354.606-301.871,352.948-306.074,352.948-311.578z"/>
	<path d="M408.653-334.783c-2.211,0-4.01,0.563-5.396,1.69s-2.078,2.762-2.078,4.907c0,2.145,0.822,3.781,2.469,4.907
		c1.646,1.128,3.641,1.95,5.98,2.47c2.34,0.521,4.68,1.116,7.02,1.788s4.332,1.917,5.98,3.737c1.646,1.82,2.471,4.398,2.471,7.735
		s-1.41,6.327-4.227,8.97c-2.816,2.644-6.586,3.965-11.309,3.965c-4.725,0-8.559-1.104-11.506-3.314s-4.42-5.266-4.42-9.165h7.93
		c0.174,1.993,0.91,3.574,2.211,4.745c1.299,1.17,3.205,1.755,5.719,1.755s4.496-0.65,5.947-1.95c1.453-1.3,2.178-2.838,2.178-4.615
		c0-1.776-0.443-3.162-1.332-4.16c-0.889-0.996-2.037-1.743-3.445-2.242c-1.408-0.498-2.957-0.942-4.646-1.333
		c-1.691-0.39-3.393-0.845-5.104-1.364c-1.711-0.521-3.271-1.191-4.68-2.016c-1.408-0.822-2.557-2.024-3.445-3.607
		c-0.889-1.581-1.332-3.52-1.332-5.817c0-3.942,1.418-7.117,4.258-9.522c2.838-2.405,6.521-3.607,11.049-3.607
		c4.529,0,8.146,1.04,10.855,3.12s4.215,5.092,4.518,9.035h-8.189c-0.174-1.733-0.91-3.186-2.211-4.355
		C412.618-334.198,410.862-334.783,408.653-334.783z"/>
	<path d="M431.923-295.068v-45.175h7.41v45.175H431.923z"/>
	<path d="M451.356-301.178c-4.463-4.333-6.695-9.848-6.695-16.543s2.232-12.22,6.695-16.575c4.463-4.354,9.922-6.532,16.381-6.532
		c4.809,0,9.088,1.182,12.836,3.543c3.748,2.362,6.469,5.709,8.158,10.042h-8.904c-2.428-4.55-6.459-6.825-12.09-6.825
		c-4.551,0-8.268,1.495-11.148,4.485c-2.883,2.99-4.322,6.944-4.322,11.862c0,4.919,1.439,8.873,4.322,11.862
		c2.881,2.99,6.598,4.485,11.148,4.485c5.631,0,9.662-2.275,12.09-6.825h8.904c-1.689,4.334-4.41,7.67-8.158,10.01
		c-3.748,2.341-8.027,3.511-12.836,3.511C461.278-294.678,455.819-296.845,451.356-301.178z"/>
</g>
<g>
	<path d="M164.775-472.822h11.115v45.759h-11.115l-18.59-28.794v28.794H135.07v-45.759h11.115l18.59,28.794V-472.822z"/>
	<path d="M211.315-472.822v8.451h-16.51v9.812h14.56v8.451h-14.56v10.594h16.51v8.451H183.69v-45.759H211.315z"/>
	<path d="M269.555-472.691h11.961l-12.74,45.628h-12.74l-7.995-28.925l-7.931,28.925H227.37l-12.935-45.628h11.895l7.93,32.824
		l8.125-32.824h12.61l7.8,32.302L269.555-472.691z"/>
	<path d="M300.365-464.566c-1.389,0-2.525,0.369-3.413,1.105c-0.889,0.736-1.333,1.797-1.333,3.184s0.412,2.502,1.235,3.348
		c0.823,0.844,1.896,1.494,3.218,1.949c1.321,0.455,2.795,0.889,4.42,1.301s3.238,0.91,4.842,1.494
		c1.604,0.586,3.066,1.311,4.389,2.178c1.32,0.867,2.393,2.091,3.217,3.671c0.822,1.584,1.234,3.479,1.234,5.688
		c0,3.857-1.57,7.162-4.712,9.914s-7.28,4.127-12.415,4.127s-9.273-1.234-12.415-3.705s-4.712-5.98-4.712-10.529h11.83
		c0.303,3.639,2.166,5.459,5.59,5.459c1.603,0,2.859-0.422,3.77-1.268s1.365-1.918,1.365-3.217c0-1.301-0.412-2.361-1.234-3.186
		c-0.824-0.822-1.896-1.473-3.219-1.949s-2.795-0.922-4.42-1.334c-1.625-0.41-3.239-0.92-4.842-1.527
		c-1.604-0.605-3.066-1.332-4.388-2.177c-1.322-0.844-2.396-2.057-3.218-3.639c-0.823-1.582-1.234-3.455-1.234-5.623
		c0-4.246,1.581-7.646,4.744-10.203s7.204-3.836,12.123-3.836c4.918,0,8.894,1.115,11.928,3.348
		c3.032,2.232,4.615,5.752,4.744,10.561h-12.09c-0.174-1.645-0.705-2.912-1.592-3.801
		C302.889-464.121,301.751-464.566,300.365-464.566z"/>
</g>
</svg>
